<svg width="23" height="22" viewBox="0 0 23 22" xmlns="http://www.w3.org/2000/svg">
<path fill-rule="evenodd" clip-rule="evenodd" d="M11.6285 0.230591C11.8083 0.0729424 12.0462 -0.00969289 12.2897 0.000907239C17.4368 0.151395 21.7386 3.80075 22.5182 8.67826C22.5231 8.70738 22.5231 8.73708 22.5182 8.7662C22.535 8.99698 22.4551 9.22466 22.2963 9.39888C22.1374 9.57309 21.9127 9.67949 21.6718 9.69452L13.0239 10.2515C12.738 10.2763 12.4543 10.1844 12.2427 9.99836C12.0311 9.81235 11.9112 9.54948 11.9124 9.27433L11.3311 0.978086V0.841281C11.3417 0.607953 11.4487 0.388239 11.6285 0.230591ZM11.0353 12.4208L18.5308 11.9518L18.5818 11.9713C18.9036 11.9765 19.2102 12.104 19.434 12.3257C19.6577 12.5475 19.7804 12.8453 19.7749 13.1537C19.4796 17.3573 16.324 20.8696 12.0298 21.7745C7.73556 22.6793 3.33344 20.7595 1.22495 17.0624C0.604961 15.9976 0.213176 14.8249 0.072585 13.613C0.0180566 13.2539 -0.00581764 12.8911 0.00119971 12.5283C0.0154115 8.05843 3.27387 4.20027 7.83318 3.2549C8.38512 3.154 8.9385 3.42315 9.17931 3.90961C9.23925 3.99789 9.28723 4.09311 9.32208 4.19299C9.40755 5.48151 9.4962 6.75783 9.58448 8.02877C9.6542 9.0325 9.72368 10.0329 9.79118 11.0332C9.7877 11.2689 9.82562 11.5034 9.90336 11.727C10.0864 12.167 10.5418 12.4461 11.0353 12.4208Z" />
</svg>
