<svg width="45" height="45" viewBox="0 0 45 45" xmlns="http://www.w3.org/2000/svg">
<path d="M4.5 13.5H40.5V42.75C40.5 43.3467 40.2629 43.919 39.841 44.341C39.419 44.7629 38.8467 45 38.25 45H6.75C6.15326 45 5.58097 44.7629 5.15901 44.341C4.73705 43.919 4.5 43.3467 4.5 42.75V13.5ZM11.25 6.75V2.25C11.25 1.65326 11.4871 1.08097 11.909 0.65901C12.331 0.237053 12.9033 0 13.5 0H31.5C32.0967 0 32.669 0.237053 33.091 0.65901C33.5129 1.08097 33.75 1.65326 33.75 2.25V6.75H45V11.25H0V6.75H11.25ZM15.75 4.5V6.75H29.25V4.5H15.75ZM15.75 22.5V36H20.25V22.5H15.75ZM24.75 22.5V36H29.25C29.25 36 34.2515 24.1672 29.25 22.5C27.5828 21.9443 24.75 22.5 24.75 22.5Z"/>
</svg>
