<svg width="25" height="18" viewBox="0 0 25 18" xmlns="http://www.w3.org/2000/svg">
<path fill-rule="evenodd" clip-rule="evenodd" d="M17.0697 4.65537C17.0697 7.2396 14.9603 9.31174 12.3297 9.31174C9.69899 9.31174 7.58961 7.2396 7.58961 4.65537C7.58961 2.07016 9.69899 0 12.3297 0C14.9603 0 17.0697 2.07016 17.0697 4.65537ZM12.3296 17.5971C8.46581 17.5971 5.16663 16.9988 5.16663 14.6058C5.16663 12.2117 8.44463 11.5917 12.3296 11.5917C16.1935 11.5917 19.4926 12.1899 19.4926 14.584C19.4926 16.977 16.2146 17.5971 12.3296 17.5971ZM19.0953 4.73937C19.0953 6.05674 18.693 7.28397 17.9872 8.30419C17.9146 8.40919 17.9791 8.55083 18.1071 8.57262C18.2836 8.60233 18.4661 8.61917 18.6516 8.62412C20.5019 8.67167 22.1625 7.50188 22.6213 5.74077C23.3009 3.12485 21.3055 0.776362 18.7646 0.776362C18.4883 0.776362 18.2241 0.805086 17.967 0.856592C17.9317 0.864516 17.8944 0.880364 17.8742 0.91107C17.85 0.948709 17.8682 0.999225 17.8924 1.03191C18.6557 2.08284 19.0953 3.36455 19.0953 4.73937ZM22.1596 10.4621C23.4028 10.7008 24.2205 11.1881 24.5593 11.8963C24.8457 12.4778 24.8457 13.1523 24.5593 13.7327C24.0411 14.8312 22.3703 15.1838 21.7209 15.2749C21.5868 15.2948 21.4789 15.1808 21.4931 15.0491C21.8248 12.0053 19.1861 10.5621 18.5034 10.2303C18.4742 10.2155 18.4681 10.1927 18.4712 10.1788C18.4732 10.1689 18.4853 10.1531 18.5075 10.1501C19.9846 10.1233 21.5727 10.3214 22.1596 10.4621ZM6.12272 8.62402C6.30825 8.61907 6.48974 8.60322 6.6672 8.57252C6.79526 8.55073 6.85979 8.40908 6.78719 8.30409C6.08138 7.28387 5.67906 6.05664 5.67906 4.73927C5.67906 3.36445 6.11868 2.08274 6.88197 1.03181C6.90617 0.999124 6.92331 0.948609 6.90012 0.910969C6.87996 0.881254 6.84164 0.864416 6.80736 0.856492C6.54923 0.804985 6.28505 0.776261 6.00878 0.776261C3.46785 0.776261 1.47241 3.12475 2.15301 5.74067C2.61179 7.50178 4.27247 8.67157 6.12272 8.62402ZM6.30268 10.1782C6.3057 10.1931 6.29965 10.2149 6.27142 10.2307C5.58779 10.5625 2.94905 12.0057 3.28078 15.0485C3.2949 15.1812 3.18802 15.2941 3.05391 15.2753C2.40456 15.1842 0.733799 14.8316 0.215529 13.7331C-0.071838 13.1517 -0.071838 12.4782 0.215529 11.8967C0.55432 11.1885 1.37105 10.7012 2.61429 10.4615C3.20213 10.3218 4.78921 10.1237 6.26738 10.1505C6.28957 10.1535 6.30066 10.1693 6.30268 10.1782Z"/>
</svg>
