<svg width="21" height="16" viewBox="0 0 21 16" xmlns="http://www.w3.org/2000/svg">
<path fill-rule="evenodd" clip-rule="evenodd" d="M20.26 6.53905C20.1213 6.67058 19.9332 6.74574 19.7351 6.74574C19.0024 6.74574 18.4082 7.30945 18.4082 7.9953C18.4082 8.68585 18.9954 9.24674 19.7213 9.25426C20.1302 9.25802 20.4778 9.5286 20.4778 9.91662V12.3265C20.4778 14.3549 18.7449 16 16.606 16H13.3779C13.0442 16 12.7739 15.7435 12.7739 15.4269V13.3975C12.7739 13.0029 12.4471 12.6929 12.0312 12.6929C11.6252 12.6929 11.2885 13.0029 11.2885 13.3975V15.4269C11.2885 15.7435 11.0182 16 10.6855 16H3.87176C1.74278 16 -1.33514e-05 14.3558 -1.33514e-05 12.3265V9.91662C-1.33514e-05 9.5286 0.347555 9.25802 0.756517 9.25426C1.48334 9.24674 2.06955 8.68585 2.06955 7.9953C2.06955 7.32824 1.49522 6.8209 0.742654 6.8209C0.544609 6.8209 0.356467 6.74574 0.217836 6.61421C0.0792045 6.48268 -1.33514e-05 6.30417 -1.33514e-05 6.11627V3.68291C-1.33514e-05 1.65731 1.74674 0 3.88166 0H10.6855C11.0182 0 11.2885 0.256489 11.2885 0.573106V2.97827C11.2885 3.36348 11.6252 3.68291 12.0312 3.68291C12.4471 3.68291 12.7739 3.36348 12.7739 2.97827V0.573106C12.7739 0.256489 13.0442 0 13.3779 0H16.606C18.7449 0 20.4778 1.64416 20.4778 3.67352V6.0411C20.4778 6.22901 20.3986 6.40752 20.26 6.53905ZM12.0312 10.8702C12.4471 10.8702 12.7739 10.5508 12.7739 10.1656V6.40752C12.7739 6.02232 12.4471 5.70288 12.0312 5.70288C11.6252 5.70288 11.2886 6.02232 11.2886 6.40752V10.1656C11.2886 10.5508 11.6252 10.8702 12.0312 10.8702Z"/>
</svg>
