<svg width="19" height="22" viewBox="0 0 19 22" xmlns="http://www.w3.org/2000/svg">
<path fill-rule="evenodd" clip-rule="evenodd" d="M5.98681 10.3677H9.52996C9.96017 10.3677 10.3098 10.0251 10.3098 9.60241C10.3098 9.17966 9.96017 8.83612 9.52996 8.83612H5.98681C5.5566 8.83612 5.20805 9.17966 5.20805 9.60241C5.20805 10.0251 5.5566 10.3677 5.98681 10.3677ZM5.98695 15.5047H11.6853C12.1155 15.5047 12.4651 15.1622 12.4651 14.7394C12.4651 14.3167 12.1155 13.9731 11.6853 13.9731H5.98695C5.55675 13.9731 5.20819 14.3167 5.20819 14.7394C5.20819 15.1622 5.55675 15.5047 5.98695 15.5047Z" />
<path d="M16.2812 7.93589C15.8086 7.93589 15.1826 7.92561 14.4032 7.92561C12.5024 7.92561 10.9395 6.37967 10.9395 4.49429V1.18641C10.9395 0.92618 10.7281 0.714294 10.4659 0.714294H4.92933C2.34554 0.714294 0.257154 2.79818 0.257154 5.35212V16.435C0.257154 19.1144 2.44504 21.2857 5.14491 21.2857H13.3896C15.9641 21.2857 18.0514 19.2152 18.0514 16.6592V8.39875C18.0514 8.13749 17.841 7.92664 17.5778 7.92767C17.1352 7.93075 16.6046 7.93589 16.2812 7.93589"/>
<path d="M13.4291 1.29808C13.1161 0.978198 12.5697 1.19831 12.5697 1.64163V4.35397C12.5697 5.49157 13.5233 6.42757 14.681 6.42757C15.4105 6.4358 16.4238 6.43785 17.2842 6.4358C17.7248 6.43477 17.9488 5.9174 17.6432 5.60471C16.5389 4.47637 14.5616 2.4542 13.4291 1.29808"/>

</svg>
