<svg width="23" height="22" viewBox="0 0 23 22" xmlns="http://www.w3.org/2000/svg">
<path fill-rule="evenodd" clip-rule="evenodd" d="M3.8147e-06 10.9982C3.8147e-06 4.92829 5.0449 0 11.2609 0C17.4882 0 22.5219 4.92829 22.5219 10.9982C22.5219 17.0703 17.4882 21.9964 11.2609 21.9964C5.0449 21.9964 3.8147e-06 17.0703 3.8147e-06 10.9982ZM10.27 6.82986C10.27 6.30305 10.7205 5.86202 11.261 5.86202C11.8015 5.86202 12.2407 6.30305 12.2407 6.82986V11.6911C12.2407 12.2201 11.8015 12.6479 11.261 12.6479C10.7205 12.6479 10.27 12.2201 10.27 11.6911V6.82986ZM11.2722 16.1464C10.7204 16.1464 10.2813 15.7065 10.2813 15.1786C10.2813 14.6507 10.7204 14.2218 11.261 14.2218C11.8127 14.2218 12.2519 14.6507 12.2519 15.1786C12.2519 15.7065 11.8127 16.1464 11.2722 16.1464Z"/>
</svg>
