<svg width="20" height="20" viewBox="0 0 20 20" xmlns="http://www.w3.org/2000/svg">
<path d="M18.0415 11.8132C18.0415 11.294 18.464 10.8725 18.9844 10.8725C19.5048 10.8725 19.9272 11.294 19.9272 11.8132V17.2152C19.9272 17.9818 19.614 18.6784 19.1084 19.1829C18.6027 19.6875 17.9045 20 17.1362 20H2.79105C2.02274 20 1.32457 19.6875 0.818883 19.1829C0.313198 18.6784 0 17.9818 0 17.2152V2.79796C0 2.03137 0.313198 1.33476 0.818883 0.830201C1.32457 0.325647 2.02274 0.013149 2.79105 0.013149H8.17089C8.69126 0.013149 9.11375 0.434696 9.11375 0.953898C9.11375 1.4731 8.69126 1.89465 8.17089 1.89465H2.79105C2.54311 1.89465 2.31799 1.99719 2.15324 2.15995C1.98848 2.32433 1.88735 2.54894 1.88735 2.79633V17.2136C1.88735 17.461 1.99011 17.6856 2.15324 17.8499C2.31799 18.0143 2.54311 18.1152 2.79105 18.1152H17.1378C17.3858 18.1152 17.6109 18.0127 17.7756 17.8499C17.9404 17.6872 18.0415 17.461 18.0415 17.2136V11.8132ZM18.3384 2.84191L8.81034 12.4675C8.44657 12.837 7.84953 12.8418 7.47924 12.4789C7.10895 12.1159 7.10406 11.5202 7.46782 11.1508L16.6289 1.89465H12.815C12.2947 1.89465 11.8722 1.4731 11.8722 0.953898C11.8722 0.434696 12.2947 0.013149 12.815 0.013149H17.1378C17.973 0.013149 19.0496 -0.128452 19.6907 0.517703C20.0953 0.926229 20.0055 4.18304 19.9533 6.06943C19.9403 6.5577 19.9289 6.93042 19.9289 7.19735C19.9289 7.71655 19.5064 8.1381 18.986 8.1381C18.4657 8.1381 18.0432 7.71655 18.0432 7.19735C18.0432 7.14689 18.0562 6.65699 18.0742 6.01897C18.1003 5.0359 18.2585 3.73383 18.3384 2.84191Z"/>
</svg>
