<svg width="20" height="19" viewBox="0 0 20 19" xmlns="http://www.w3.org/2000/svg">
<path d="M19.0707 9.04287L10.2227 0.201365C10.159 0.137533 10.0833 0.086891 10 0.0523382C9.91674 0.0177854 9.82744 0 9.73726 0C9.64707 0 9.55777 0.0177854 9.47447 0.0523382C9.39117 0.086891 9.3155 0.137533 9.25179 0.201365L0.403839 9.04287C0.14607 9.30064 0 9.65078 0 10.016C0 10.7742 0.6165 11.3907 1.37477 11.3907H2.30704V17.6996C2.30704 18.0798 2.61422 18.387 2.99443 18.387H8.36248V13.5753H10.7683V18.387H16.4801C16.8603 18.387 17.1675 18.0798 17.1675 17.6996V11.3907H18.0997C18.4649 11.3907 18.8151 11.2468 19.0728 10.9869C19.6077 10.4499 19.6077 9.57989 19.0707 9.04287Z"/>
</svg>
