<svg id="Layer_1" data-name="Layer 1" xmlns="http://www.w3.org/2000/svg" viewBox="0 0 122.88 101.43"><defs><style>.cls-1{fill-rule:evenodd;}</style></defs><title>time-stamp</title><path class="cls-1" d="M63.72,6.07c4.35,6.37,2.49,12.57.57,19.43-.91,3.29-1.89,6.9-2.78,9.5-3,8.76-6.46,21.54,1.8,25.71a35.45,35.45,0,0,0,2.83,29.92l-15.63.15c-14.61-.12-29.23-.32-44.21-.32v7.86h66A36.31,36.31,0,0,0,76,101.43H4.2a1,1,0,0,1-1-1V89.81H3c-1.56,0-2.36-1-3-2.41V71.89c.07-7,4.1-9.45,9.84-9.84H29.67c18,.8,13.55-16.2,9.84-27-.89-2.6-1.86-6.21-2.78-9.5C34.82,18.64,33,12.44,37.3,6.07,42.84-2,58.19-2,63.72,6.07ZM96.58,46.36A26.29,26.29,0,1,1,78,54.06a26.27,26.27,0,0,1,18.6-7.7Zm10.36,32.69a4,4,0,0,0,.51-.06,2.81,2.81,0,0,0,.49-.16,3,3,0,0,0,1.28-1,3,3,0,0,0,.53-1.55v-.2a2.91,2.91,0,0,0-2.2-2.76,3.72,3.72,0,0,0-.57-.08h0c-1.1,0-6.88-.09-8.06-.16l-1-.06.32-9.78a2.56,2.56,0,0,0,0-.55,2.39,2.39,0,0,0-.15-.54,2.45,2.45,0,0,0-.26-.51,4.7,4.7,0,0,0-.34-.44h0a3.62,3.62,0,0,0-.42-.36,3.41,3.41,0,0,0-.5-.28,3.31,3.31,0,0,0-.53-.18,3.19,3.19,0,0,0-.55-.06H95.3a3.29,3.29,0,0,0-.54.05,2.72,2.72,0,0,0-.54.15,3.4,3.4,0,0,0-.5.26,2.94,2.94,0,0,0-.44.35l-.07.06a3,3,0,0,0-.32.39,4.39,4.39,0,0,0-.27.47,3.27,3.27,0,0,0-.17.53,2.6,2.6,0,0,0-.07.56L92,75.69a2.66,2.66,0,0,0,0,.57,2.72,2.72,0,0,0,.15.54,2.59,2.59,0,0,0,.25.5,2.42,2.42,0,0,0,.34.45l0,0a2.5,2.5,0,0,0,.39.34l0,0a2.51,2.51,0,0,0,.45.26,3,3,0,0,0,.52.2h0a3.28,3.28,0,0,0,.52.08h0c.89,0,1.82.1,2.77.17,1.64.11,7.9.23,9.4.19Zm4.82-21.57a21.46,21.46,0,1,0,6.29,15.18,21.41,21.41,0,0,0-6.29-15.18Z"/></svg>